<svg width="24" height="24" viewBox="0 0 24 24" fill="none" xmlns="http://www.w3.org/2000/svg"><path d="m 5.13968,15.32 3.5509,-3.7539 C 9.02934,11.2036 9.48873,11 9.96774,11 c 0.47896,0 0.93836,0.2036 1.27716,0.5661 l 0.426269,0.520955" stroke="#000000" stroke-width="2" stroke-linecap="round" stroke-linejoin="round" /> <path d="M13.7778 9.33331H13.7867" stroke="black" stroke-width="2" stroke-linecap="round" stroke-linejoin="round" /><path stroke="currentColor" stroke-linecap="round" stroke-width="2" d="M 19.1187 14.8787 L 16.9974 17 M 14.876 19.1213 L 16.9974 17 M 19.1187 19.1213 L 16.9974 17 M 16.9974 17 L 14.876 14.8787" /><path stroke="currentColor" stroke-linecap="round" stroke-linejoin="round" stroke-width="2" d="m 9.6444424,19.008475 h 0.0096" /><path stroke="currentColor" stroke-linecap="round" stroke-linejoin="round" stroke-width="2" d="M 11 19 V 19 C 9.13623 19 8.20435 19 7.46927 18.6955 C 6.48915 18.2895 5.71046 17.5108 5.30448 16.5307 C 5 15.7956 5 14.8638 5 13 V 12 C 5 9.19108 5 7.78661 5.67412 6.77772 C 5.96596 6.34096 6.34096 5.96596 6.77772 5.67412 C 7.78661 5 9.19108 5 12 5 H 13.5 C 14.8956 5 15.5933 5 16.1611 5.17224 C 17.4395 5.56004 18.44 6.56046 18.8278 7.83886 C 19 8.40666 19 9.10444 19 10.5 V 10.5" /></svg>
